<svg xmlns="http://www.w3.org/2000/svg" viewBox="0 0 512 512" style="enable-background:new 0 0 512 512" xml:space="preserve"><style>.st1{fill:#3d2a3d}.st12{fill:#fff}.st27{fill:#919191}.st28{fill:#6e6e6e}.st29{fill:#b8b8b8}</style><path d="M0 256C0 114.6 114.6 0 256 0s256 114.6 256 256-114.6 256-256 256S0 397.4 0 256z" style="fill:#386BF3" id="Layer_9"/><g id="Layer_7"><circle class="st12" cx="251" cy="253" r="180"/><path class="st27" d="M132.9 242.9c1.2 14.4 11 18.3 21.8 8.7l53.7-47.9c10.8-9.6 8.6-21.8-4.8-27.2l-54.7-21.7c-13.4-5.3-23.4 2.1-22.1 16.5l6.1 71.6z"/><path class="st28" d="M147.9 237.6c.8 9.7 7.5 12.3 14.7 5.9l36.3-32.4c7.3-6.5 5.8-14.8-3.3-18.4L158.7 178c-9.1-3.6-15.8 1.4-15 11.1l4.2 48.5z"/><path class="st27" d="M369 242.9c-1.2 14.4-11 18.3-21.8 8.7l-53.7-47.9c-10.8-9.6-8.6-21.8 4.8-27.2l54.7-21.7c13.4-5.3 23.4 2.1 22.1 16.5l-6.1 71.6z"/><path class="st28" d="M354 237.6c-.8 9.7-7.5 12.3-14.7 5.9L303 211c-7.3-6.5-5.8-14.8 3.3-18.4l36.9-14.7c9.1-3.6 15.8 1.4 15 11.1l-4.2 48.6z"/><ellipse class="st29" cx="251" cy="319" rx="130.5" ry="60"/><path class="st29" d="M356 360v-89c0-51.5-46.6-93.2-104-93.2S148 219.5 148 271v89h208z"/><g><circle class="st1" cx="216.5" cy="273" r="11"/><circle class="st1" cx="285.5" cy="273" r="11"/></g><g><path class="st28" d="M259 229v-51.1c-2-.2-5.2-.3-8-.3s-6 .1-8 .3V229c0 11 16 11 16 0zM206.5 230.3c2.7 10.5 18.9 6 16.2-4.5-3.9-15.3-2.1-31.6 4.7-45.8-7 1.5-13.8 3.6-20.2 6.2-4.1 14.3-4.5 29.5-.7 44.1zM279.3 225.8c-2.7 10.5 13.5 15 16.2 4.5 3.7-14.6 3.4-29.7-.7-44-6.4-2.7-13.2-4.8-20.2-6.2 6.8 14.1 8.6 30.4 4.7 45.7z"/></g><path class="st29" d="M251 396c54.2 0 101-17.5 123.5-43-22.4-25.5-69.3-43-123.5-43s-101 17.5-123.5 43c22.4 25.5 69.3 43 123.5 43z"/><g><path class="st12" d="M299 338.5c0 14.1-11.4 25.5-25.5 25.5h-45c-14.1 0-25.5-11.4-25.5-25.5s11.4-25.5 25.5-25.5h45c14.1 0 25.5 11.4 25.5 25.5z"/><ellipse class="st12" cx="251" cy="316" rx="33.5" ry="27"/><path class="st1" d="M269.1 337.7c-.2 10.3-8.2 18.2-18.5 18.5-10.3.2-18.2-8.6-18.5-18.5-.2-6.4-10.1-6.4-9.9 0 .4 15.7 12.7 28 28.4 28.4 15.7.4 28-13.2 28.4-28.4.1-6.4-9.8-6.3-9.9 0z"/><path d="M273.7 305.8c0 6.5-23.1 19.1-23.1 19.1s-23.1-12.5-23.1-19.1c0-6.5 10.4-8.1 23.1-8.1 12.8 0 23.1 1.6 23.1 8.1z" style="fill:#ff826e"/><path class="st27" d="M257 347.5c0 3-2.5 5.5-5.5 5.5s-5.5-2.5-5.5-5.5v-29c0-3 2.5-5.5 5.5-5.5s5.5 2.5 5.5 5.5v29z"/></g></g></svg>